<svg xmlns="http://www.w3.org/2000/svg" xmlns:xlink="http://www.w3.org/1999/xlink" viewBox="0 0 400 400"><defs><style>.cls-1,.cls-4{fill:none;}.cls-1,.cls-4,.cls-5,.cls-6,.cls-7,.cls-8{stroke:#000;}.cls-1,.cls-3,.cls-5,.cls-6,.cls-7,.cls-8{stroke-miterlimit:10;}.cls-1,.cls-3,.cls-4{stroke-width:5px;}.cls-2{clip-path:url(#clip-path);}.cls-3{fill:url(#linear-gradient);stroke:url(#linear-gradient-2);}.cls-4{stroke-linecap:round;stroke-linejoin:round;}.cls-5,.cls-6,.cls-7,.cls-8{stroke-width:2px;}.cls-5{fill:url(#linear-gradient-3);}.cls-6{fill:url(#linear-gradient-4);}.cls-7{fill:url(#linear-gradient-6);}.cls-8{fill:url(#linear-gradient-7);}</style><clipPath id="clip-path"><path class="cls-1" d="M125.12,244.42c-22.3,12.57-52.91,28.64-55.35,21.75-1.56-4.44,33.86-41.22,69.51-69.89h0c28.57-37.83,62.84-64.88,80.49-77.67,18-13.06,10.69-49,43-49,11,0,18.64,6,26.76,10.13,8.46,4.31,31.71,13,40.43,16.21a.68.68,0,0,1-.21,1.32c-11.63.41-48,2.35-52.39,10.85-5.27,10.13,6.49,25.13,3.25,45.4s-26,69.15-65.27,86.76c-20,11.4-49.21,9.36-49.21,9.36l-4.1-.81c-5.52,4.25-10.44,6.44-14.39,11.72-8.51,11.35-37.3,62-45.81,60s-2.43-11.35-2.43-11.35-5.27,6.08-8.11,4.46,0-7.7,0-7.7-19.16,14.59-21.54,7.7,42.43-39.18,55.4-69.18Z"/></clipPath><linearGradient id="linear-gradient" x1="40.93" y1="46.79" x2="293.9" y2="299.76" gradientTransform="matrix(0, 0.78, -0.89, 0, 351.29, 65.37)" gradientUnits="userSpaceOnUse"><stop offset="0" stop-color="#759fdc"/><stop offset="1" stop-color="#d18dec"/></linearGradient><linearGradient id="linear-gradient-2" x1="53.75" y1="196.21" x2="340.2" y2="196.21" gradientTransform="translate(243.13 -77.95) rotate(54.67)" xlink:href="#linear-gradient"/><linearGradient id="linear-gradient-3" x1="175.65" y1="299.09" x2="250" y2="299.09" gradientTransform="matrix(1, 0, 0, 1, 0, 0)" xlink:href="#linear-gradient"/><linearGradient id="linear-gradient-4" x1="162.78" y1="299.09" x2="262.87" y2="299.09" gradientTransform="matrix(1, 0, 0, 1, 0, 0)" xlink:href="#linear-gradient"/><linearGradient id="linear-gradient-6" x1="175.65" y1="299.09" x2="250" y2="299.09" gradientTransform="matrix(1, 0, 0, 1, 0, 0)" xlink:href="#linear-gradient"/><linearGradient id="linear-gradient-7" x1="197.95" y1="299.09" x2="227.7" y2="299.09" gradientTransform="matrix(1, 0, 0, 1, 0, 0)" xlink:href="#linear-gradient"/></defs><g id="Layer_2" data-name="Layer 2"><g class="cls-2"><ellipse class="cls-3" cx="196.97" cy="196.21" rx="186.65" ry="110.67" transform="translate(-77.01 243.43) rotate(-54.67)"/></g><path class="cls-1" d="M125.12,244.42c-22.3,12.57-52.91,28.64-55.35,21.75-1.56-4.44,33.86-41.22,69.51-69.89h0c28.57-37.83,62.84-64.88,80.49-77.67,18-13.06,10.69-49,43-49,11,0,18.64,6,26.76,10.13,8.46,4.31,31.71,13,40.43,16.21a.68.68,0,0,1-.21,1.32c-11.63.41-48,2.35-52.39,10.85-5.27,10.13,6.49,25.13,3.25,45.4s-26,69.15-65.27,86.76c-20,11.4-49.21,9.36-49.21,9.36l-4.1-.81c-5.52,4.25-10.44,6.44-14.39,11.72-8.51,11.35-37.3,62-45.81,60s-2.43-11.35-2.43-11.35-5.27,6.08-8.11,4.46,0-7.7,0-7.7-19.16,14.59-21.54,7.7,42.43-39.18,55.4-69.18Z"/><path class="cls-4" d="M182.89,218c-7.38,18.23-14.53,25.87-20.89,30.77"/><ellipse cx="266.54" cy="84.59" rx="5.67" ry="3.87"/><path class="cls-4" d="M249.16,179c-51.28,36.08-101.74,52.85-124,65.41"/><path class="cls-4" d="M192.61,162.39c-14.3,6.35-33.61,18-53.33,33.89"/><path class="cls-5" d="M177.66,324a2,2,0,0,1-1.1-3.67l70.35-45.91a2,2,0,0,1,2.18,3.35l-70.34,45.9A2,2,0,0,1,177.66,324Z"/><path class="cls-6" d="M164.78,309.49a2,2,0,0,1-.35-4l96.1-16.8a2,2,0,0,1,2.31,1.62,2,2,0,0,1-1.62,2.32l-96.1,16.8A2,2,0,0,1,164.78,309.49Z"/><path class="cls-6" d="M260.87,309.49a2,2,0,0,1-.34,0l-96.1-16.8a2,2,0,0,1,.69-3.94l96.1,16.8a2,2,0,0,1-.35,4Z"/><path class="cls-7" d="M248,324a1.89,1.89,0,0,1-1.09-.33l-70.35-45.9a2,2,0,1,1,2.19-3.35l70.34,45.91A2,2,0,0,1,248,324Z"/><path class="cls-8" d="M225.7,332.44a2,2,0,0,1-1.85-1.24L198.1,268.49a2,2,0,0,1,3.7-1.52l25.75,62.71a2,2,0,0,1-1.09,2.61A2.06,2.06,0,0,1,225.7,332.44Z"/><path class="cls-8" d="M200,332.44a2.06,2.06,0,0,1-.76-.15,2,2,0,0,1-1.09-2.61L223.85,267a2,2,0,1,1,3.7,1.52L201.8,331.2A2,2,0,0,1,200,332.44Z"/></g></svg>